# xmcd
#
# Track frame offsets:
#	152
#	9412
#	18535
#	28572
#	41572
#	52605
#	64515
#	79167
#	88027
#	99515
#	116147
#	125337
#	135000
#	145752
#	155387
#	165560
#	175677
#	186297
#	198517
#	210440
#	226095
#	240777
#	253047
#	267667
#	279117
#
# Disc length: 3886 seconds
#
# Revision: 0
# Processed by: cddbd v1.5.2PL0 Copyright (c) Steve Scherf et al.
# Submitted via: EasyCDDAExtractor 12.0.1.1
#
DISCID=380f2c19
DTITLE=Charles Jacobie - Mockin' Bird Song and Other Favourites
DYEAR=1996
DGENRE=Country
TTITLE0=Mockin' Bird Song
TTITLE1=Loaded Pistols
TTITLE2=Headin' for Old San Antone
TTITLE3=Moonlight and Roses
TTITLE4=Mexicali Rose
TTITLE5=Golden Sunset
TTITLE6=My Rifle, My Pony and Me
TTITLE7=Cowboy Rock and Roll
TTITLE8=Forever and Ever
TTITLE9=Wagon Wheels
TTITLE10=Jealous Heart
TTITLE11=Heartaches by the Number
TTITLE12=Crystal Chandelier
TTITLE13=Wooden Heart
TTITLE14=Happy Birthday My Darling
TTITLE15=Pearly Shells
TTITLE16=Golden Star
TTITLE17=Waiting for a Train
TTITLE18=There Wont be a Wedding
TTITLE19=Have I Told You Lately That I Love you ?
TTITLE20=Birmingham Jail
TTITLE21=There's a Goldmine in the Sky
TTITLE22=Adios Amigos
TTITLE23=Don't Fence Me In
TTITLE24=Little Miss Blue
EXTD=
EXTT0=
EXTT1=
EXTT2=
EXTT3=
EXTT4=
EXTT5=
EXTT6=
EXTT7=
EXTT8=
EXTT9=
EXTT10=
EXTT11=
EXTT12=
EXTT13=
EXTT14=
EXTT15=
EXTT16=
EXTT17=
EXTT18=
EXTT19=
EXTT20=
EXTT21=
EXTT22=
EXTT23=
EXTT24=
PLAYORDER=
